<svg xmlns="http://www.w3.org/2000/svg" xmlns:xlink="http://www.w3.org/1999/xlink" width="540" height="360"><defs><linearGradient id="d" x1="0%" x2="100%" y1="0%" y2="0%"><stop offset="0"/><stop offset="1" stop-opacity="0"/></linearGradient><linearGradient id="c" x1="0%" x2="100%" y1="0%" y2="0%"><stop offset="0" stop-color="#515151"/><stop offset="1" stop-opacity="0"/></linearGradient><radialGradient id="e" cx="321.19" cy="851.7" r="16.652" gradientTransform="matrix(1 0 0 .57875 0 358.778)" gradientUnits="userSpaceOnUse"><stop offset="0" stop-color="#fff"/><stop offset="1" stop-color="#fff" stop-opacity="0"/></radialGradient><filter id="f" width="1.286" height="1.494" x="-.143" y="-.247" color-interpolation-filters="sRGB"><feGaussianBlur stdDeviation="1.985"/></filter></defs><path fill="#0097fe" d="M0 0h540v360H0z"/><path stroke="#fff" stroke-width="40" d="M540 60H220m0 80h320m0 80H0m0 80h540"/><g fill="#cbc534"><path id="a" d="m175 100 27.135-8.817-16.77 23.083V85.734l16.77 23.083z"/><g id="b"><use xlink:href="#a" transform="rotate(27.692 110 100)"/><use xlink:href="#a" transform="rotate(55.385 110 100)"/><use xlink:href="#a" transform="rotate(83.077 110 100)"/></g><use xlink:href="#b" transform="rotate(83.077 110 100)"/><use xlink:href="#b" transform="rotate(166.154 110 100)"/><use xlink:href="#b" transform="rotate(249.231 110 100)"/></g><g fill="#fff"><path d="M120.54 151.78c-.105-.169 1.207-3.312 2.916-6.986 4.84-10.41 5.587-12.333 6.151-15.845.696-4.337-.74-7.202-6.596-13.152l-3.564-3.622-2.104.869c-6.93 2.86-14.459 3.401-24.078 1.727-5.644-.982-5.921-.98-7.83.056-.945.512-3.518 2.337-5.719 4.055-4.8 3.747-4.88 3.791-8.312 4.655-3.386.852-9.11.74-11.513-.223-3.94-1.581-7.248-5.214-8.43-9.258-.628-2.151-.435-3.257 1.253-7.174 1.894-4.394 5.28-7.8 9.325-9.38 4.215-1.645 11.523-.754 15.467 1.887.889.595 1.787 1.08 1.996 1.078s1.347-.83 2.528-1.838c3.029-2.584 8.004-6.055 10.817-7.545 2.382-1.261 2.388-1.268 1.758-1.94-.608-.646-.943-1.575-2.794-7.74-1.3-4.335-2.75-6.433-7.547-10.923-3.66-3.425-4.377-4.273-5.491-6.487-1.714-3.408-3.86-9.832-3.427-10.262.218-.217 1.26.363 3.093 1.722 4.907 3.638 8.621 4.907 14.378 4.912 5.032.005 12.783.594 15.242 1.159 1.14.261 2.63.759 3.313 1.105 1.543.783 4.073 3.44 5.002 5.252.96 1.872 2.24 6.787 3.332 12.801.504 2.769 1.002 5.12 1.107 5.225.347.345 4.288-.647 6.918-1.742 3.633-1.512 5.598-2.828 8.822-5.911 3.184-3.046 4.765-4.11 7.028-4.729 1.79-.49 4.737-.267 6.16.465 1.215.626 3.141 2.788 4.025 4.52 1.41 2.763 2.676 4.226 5.923 6.842 4.041 3.256 4.382 3.777 3.16 4.823-1.144.98-2.075.954-5.314-.142-2.414-.817-3.062-.893-7.472-.879-5.224.016-7.128.437-8.484 1.873-.38.403-1.29 2.396-2.022 4.429l-1.331 3.696 1.394.707c1.44.73 2.037 1.138 6.124 4.19 1.89 1.412 2.715 2.312 3.78 4.127 2.162 3.681 2.652 5.244 2.48 7.91-.309 4.803-2.724 7.902-18.389 23.59-6.816 6.825-12.503 12.41-12.639 12.41s-.332-.138-.436-.306z"/><g fill="url(#c)"><path d="m78.176 60.3-.264.419c8.707 5.519 23.139 5.619 23.139 5.619l.004-.496s-14.38-.154-22.88-5.541zM81.35 66.266l-.205.449c6.481 2.965 15.905 3.909 21.105 4.217l.03-.495c-5.176-.306-14.578-1.265-20.93-4.171M86.363 71.418l-.209.45c8.15 3.768 21.65 3.833 21.65 3.833l.005-.494s-13.483-.107-21.446-3.789zM90.152 76.266l-.18.459c6.289 2.459 15.456 3.227 20.436 3.474l.026-.492c-4.96-.246-14.113-1.03-20.282-3.441M92.617 82.033l-.152.47c6.135 2.008 15.075 2.639 19.959 2.843l.02-.494c-4.866-.204-13.799-.847-19.827-2.819"/></g><g fill="url(#d)"><path d="M132.248 103s-4.475 4.966-11.943 9.336l.25.428c7.534-4.41 12.06-9.434 12.06-9.434zM140.045 103.463c-3.913 3.6-9.283 8.03-15.838 12.2l.266.415c6.586-4.188 11.978-8.636 15.908-12.252zM142.979 107.992c-3.816 3.883-9.012 8.622-15.332 13.086l.287.404c6.35-4.485 11.564-9.245 15.397-13.144zM144.857 110.33s-5.47 9.08-14.58 17.055l.326.37c9.176-8.032 14.678-17.17 14.678-17.17zM147.791 113.883c-4.971 6.59-11.8 14.71-20.139 22.346l.334.363c8.368-7.664 15.215-15.802 20.2-22.41zM70.584 102.506l-.049.05h-5.953c-3.062 0-6.13 1.566-8.445 3.116s-3.881 3.104-3.881 3.104l.348.35s1.532-1.521 3.806-3.044 5.28-3.031 8.172-3.031h6.563zM71.414 107.139l-8.324.564c-4.206.286-7.128 1.631-8.996 2.91s-2.697 2.51-2.697 2.51l.41.276s.762-1.142 2.566-2.377 4.633-2.547 8.75-2.826l8.324-.565zM73.51 109.148l-8.149 4.172c-4.047 2.072-7.149 2.74-9.23 2.896s-3.117-.191-3.117-.191l-.155.469s1.16.378 3.309.216 5.317-.852 9.418-2.95l8.148-4.17zM76.242 112.543s-9.844 3.024-18.457 9.217l.29.4c8.529-6.133 18.312-9.144 18.312-9.144z"/></g><path fill="#ff0" d="M155.463 83.201c-.583-.044-1.6.291-2.19.801-.509.44-2.193 3.328-2.193 3.76 0 .07.929.217 2.065.326s3.255.564 4.709 1.012c3.121.96 3.483.996 4.279.418.555-.404.328-.664-2.727-3.125-1.832-1.477-3.424-2.833-3.537-3.014-.066-.107-.212-.163-.406-.178"/><path fill="#000" stroke="#000" stroke-width=".165" d="M167.22 97.826c-2.624-1.038-6.19-2.884-7.296-5.94-.971-.557-1.577-2.195-2.173-3.19-.954-1.593-1.847-3.37-2.981-4.798l-.501.13c3.188 3.806 4.49 8.959 8.577 11.953 1.003.735 3.161 2.501 4.374 1.845z"/><path fill="#007f00" d="M162.62 91.938c-.717-.014-1.423.116-2 .656 1.146.826 3.192.758 4.156-.406-.695-.08-1.439-.236-2.156-.25m1.969 1.969a4.45 4.45 0 0 0-2 .5c1.087.883 3.091 1.016 4.062-.156-.722-.223-1.4-.35-2.062-.344m-3.531.625c-1.17 1.222.37 3.63.968 4.875l.72-1zm5.468 1.281a2.55 2.55 0 0 0-1.5.563c1.094.673 3.128 1.113 4.125.03-.855-.31-1.755-.637-2.625-.593m-3.343 1.281c.135 1.648 1.092 2.563 2.156 3.625.205-1.444-.879-3.276-2.156-3.625m5.468.844a5 5 0 0 0-1.125.156c1.216 1.17 2.622 1.436 4.188 1.063-.81-.913-1.933-1.257-3.063-1.22m-3.28.187c.679 1.478 1.706 2.543 3.22 2.875-.68-1.48-1.61-2.794-3.22-2.875"/><path fill="#ff0" d="M151.78 85.609s8.149 3.008 8.528 3.095-.014 0-.014 0 3.11 1.046 2.38.174c-.94-1.122-2.22-2.15-2.643-2.47-.424-.32-3.9-3.385-4.118-3.429-.22-.043-.044-.203-.935.044-.89.247-1.796.813-1.928 1.031s-1.226 1.555-1.27 1.555"/><path fill="url(#e)" d="M304.54 850.33s24.66 9.148 25.809 9.413-.044 0-.044 0 9.413 3.182 7.203.53c-2.845-3.414-6.717-6.54-7.999-7.512-1.281-.973-11.8-10.297-12.463-10.43s-.132-.619-2.828.132-5.436 2.475-5.834 3.138-3.712 4.729-3.845 4.729z" filter="url(#f)" transform="matrix(.33044 0 0 .32876 51.132 -193.888)"/><path fill="none" stroke="#dee200" stroke-width=".33" d="M162.61 89.393c-8.331-2.477-10.635-3.893-10.68-3.736s.089 0 .089 0"/><path fill="#000" d="M120.54 151.78c-.105-.169 1.207-3.312 2.916-6.986 4.84-10.41 5.587-12.333 6.151-15.845.696-4.337-.74-7.202-6.596-13.152l-3.564-3.622-2.104.869c-6.93 2.861-14.459 3.401-24.078 1.727-5.644-.982-5.921-.98-7.83.056-.945.512-3.518 2.337-5.719 4.055-4.8 3.747-4.88 3.791-8.312 4.655-3.386.852-9.11.74-11.513-.223-3.94-1.581-7.248-5.214-8.43-9.258-.628-2.151-.435-3.257 1.253-7.174 1.894-4.394 5.28-7.8 9.325-9.38 4.215-1.645 11.523-.754 15.467 1.887.889.595 1.787 1.08 1.996 1.078s1.347-.83 2.528-1.838c3.029-2.584 8.004-6.055 10.817-7.545 2.382-1.261 2.388-1.268 1.758-1.94-.608-.646-.943-1.575-2.794-7.74-1.3-4.335-2.75-6.433-7.547-10.923-3.66-3.425-4.377-4.273-5.491-6.487-1.714-3.408-3.86-9.832-3.427-10.262.218-.217 1.26.363 3.093 1.722 4.907 3.638 8.621 4.907 14.378 4.912 5.032.005 12.783.594 15.242 1.159 1.14.261 2.63.759 3.313 1.105 1.543.783 4.073 3.44 5.002 5.252.96 1.872 2.24 6.787 3.332 12.801.504 2.769 1.002 5.12 1.107 5.225.347.345 4.288-.647 6.918-1.742 3.633-1.512 5.598-2.828 8.822-5.911 3.184-3.046 4.765-4.11 7.028-4.729 1.79-.49 4.737-.267 6.16.465 1.215.626 3.141 2.788 4.025 4.52 1.41 2.763 2.676 4.226 5.923 6.842 4.041 3.256 4.382 3.777 3.16 4.823-1.144.98-2.075.954-5.314-.142-2.414-.817-3.062-.893-7.472-.879-5.224.016-7.128.437-8.484 1.873-.38.403-1.29 2.396-2.022 4.429l-1.331 3.696 1.394.707c1.44.73 2.037 1.138 6.124 4.19 1.89 1.412 2.715 2.312 3.78 4.127 2.162 3.681 2.652 5.244 2.48 7.91-.309 4.803-2.724 7.902-18.389 23.59-6.816 6.825-12.503 12.41-12.639 12.41s-.332-.138-.436-.306zm26.536-27.595c4.852-6.475 5.16-9.415 1.615-15.383-1.376-2.314-2.321-3.214-6.415-6.102-.941-.664-2.462-1.586-3.38-2.05-1.93-.972-2.767-2.05-2.615-3.363.14-1.221.714-1.184.939.061.155.856.345.524 1.439-2.514 1.842-5.114 2.856-5.952 7.961-6.576l3.197-.39.991-1.955c1.1-2.167 2.372-3.524 3.306-3.524.337 0 .612-.059.612-.131s-.595-1.07-1.322-2.22c-.727-1.147-1.455-2.383-1.617-2.744-1.045-2.333-4.752-3.636-7.895-2.776-2.243.613-3.831 1.683-7.01 4.723-3.221 3.081-5.185 4.398-8.82 5.913-3.55 1.48-7.07 2.068-14.836 2.482-7.245.386-11.84 1.118-15.649 2.491-6.244 2.253-13.095 7.115-21.825 15.49l-2.809 2.695.992.378c4.518 1.723 14.438 4.238 20.818 5.277 4.452.725 12.136.9 14.97.34 1.763-.349 7.346-2.12 8.226-2.61.767-.427-.391-1.149-2.169-1.352-1.978-.227-1.977-.805 0-.932 1.414-.091 1.683.026 3.47 1.516 3.058 2.548 8.23 8.027 9.67 10.245 1.71 2.632 2.185 4.835 1.704 7.918-.5 3.204-1.314 5.415-4.716 12.803-1.623 3.526-3.031 6.633-3.13 6.904-.363 1.011 22.3-21.948 24.298-24.614zm-.214-43.176c-.51-.507-.51-1.663 0-2.17.511-.508 2-.508 2.511 0 .51.507.51 1.663 0 2.17-.51.509-2 .509-2.511 0m-74.314 41.186c1.787-.57 2.992-1.301 5.783-3.513 1.939-1.537 4.408-3.37 5.486-4.076 1.238-.81 1.786-1.34 1.487-1.44-.26-.087-1.663-.477-3.117-.867-4.478-1.2-9.891-2.988-10.34-3.414-.345-.326.292-1.096 3.286-3.974 2.042-1.963 3.545-3.625 3.34-3.693s-.94-.528-1.634-1.023c-3.36-2.399-10.515-3.237-14.478-1.697-4.778 1.857-7.851 5.523-9.775 11.662-.567 1.807-.575 2.088-.113 3.672.987 3.377 3.947 6.928 6.749 8.096 3.483 1.452 9.247 1.567 13.327.267zm89.584-32.678c.555-.403.328-.663-2.727-3.124-1.832-1.476-3.423-2.832-3.535-3.013-.266-.428-1.81-.058-2.596.621-.51.441-2.194 3.328-2.194 3.76 0 .07.929.218 2.065.327s3.255.565 4.709 1.012c3.121.96 3.482.996 4.278.417m-59.13-1.882c1.814-.35 6.307-.814 9.985-1.033 6.461-.385 6.681-.42 6.54-1.07-.081-.369-.456-2.446-.834-4.616-.884-5.077-2.404-10.923-3.29-12.648-.95-1.854-2.845-3.874-4.353-4.639-.69-.35-2.187-.85-3.326-1.113-2.46-.564-10.21-1.154-15.242-1.158-5.475-.005-9.481-1.292-13.678-4.394-1.136-.839-2.066-1.39-2.066-1.224 0 .725 2.148 6.3 3.198 8.298.911 1.736 2.019 3.006 5.337 6.12 4.77 4.474 6.222 6.582 7.525 10.922 1.787 5.956 2.149 6.99 2.696 7.712l.566.747 1.822-.634c1.002-.35 3.306-.92 5.12-1.27z"/></g></svg>